<svg xmlns="http://www.w3.org/2000/svg" version="1.1" xmlns:xlink="http://www.w3.org/1999/xlink" viewBox="0 0 200 200"><rect width="200" height="200" fill="url('#gradient')"></rect><defs><linearGradient id="gradient" gradientTransform="rotate(106 0.5 0.5)"><stop offset="0%" stop-color="#e0e847"></stop><stop offset="100%" stop-color="#7b7d54"></stop></linearGradient></defs><g><g fill="#1b3855" transform="matrix(0.9019332686422333,0,0,0.9019332686422333,40.27766839530634,106.67664997536201)" stroke="#0e5278" stroke-width="0.35"><path d="M12.71-7.60L12.71-1.76Q11.92-0.88 10.40-0.34Q8.88 0.20 7.06 0.20L7.06 0.20Q4.27 0.20 2.60-1.51Q0.93-3.22 0.81-6.27L0.81-6.27L0.80-7.50Q0.80-9.60 1.54-11.17Q2.29-12.73 3.67-13.58Q5.05-14.42 6.87-14.42L6.87-14.42Q9.52-14.42 10.99-13.21Q12.46-11.99 12.71-9.58L12.71-9.58L9.40-9.58Q9.23-10.77 8.64-11.28Q8.06-11.79 6.98-11.79L6.98-11.79Q5.69-11.79 4.99-10.69Q4.29-9.60 4.28-7.57L4.28-7.57L4.28-6.71Q4.28-4.58 5.00-3.51Q5.73-2.44 7.29-2.44L7.29-2.44Q8.63-2.44 9.29-3.04L9.29-3.04L9.29-5.24L6.90-5.24L6.90-7.60L12.71-7.60ZM19.67 0.20L19.67 0.20Q17.24 0.20 15.73-1.25Q14.23-2.71 14.23-5.03L14.23-5.03L14.23-5.30Q14.23-6.92 14.83-8.16Q15.43-9.40 16.58-10.08Q17.73-10.76 19.32-10.76L19.32-10.76Q21.54-10.76 22.83-9.38Q24.12-8.00 24.12-5.53L24.12-5.53L24.12-4.25L17.58-4.25Q17.75-3.36 18.35-2.85Q18.95-2.34 19.89-2.34L19.89-2.34Q21.46-2.34 22.33-3.44L22.33-3.44L23.84-1.66Q23.22-0.81 22.09-0.31Q20.97 0.20 19.67 0.20ZM19.30-8.22L19.30-8.22Q17.85-8.22 17.58-6.31L17.58-6.31L20.90-6.31L20.90-6.56Q20.92-7.35 20.50-7.79Q20.08-8.22 19.30-8.22ZM25.04-4.82L25.03-5.38Q25.03-6.96 25.64-8.20Q26.26-9.43 27.41-10.10Q28.56-10.76 30.12-10.76L30.12-10.76Q32.49-10.76 33.86-9.29Q35.22-7.82 35.22-5.29L35.22-5.29L35.22-5.18Q35.22-2.71 33.85-1.25Q32.48 0.20 30.14 0.20L30.14 0.20Q27.88 0.20 26.51-1.16Q25.15-2.51 25.04-4.82L25.04-4.82ZM28.33-5.77L28.32-5.18Q28.32-3.71 28.78-3.03Q29.24-2.34 30.14-2.34L30.14-2.34Q31.89-2.34 31.93-5.05L31.93-5.05L31.93-5.38Q31.93-8.22 30.12-8.22L30.12-8.22Q28.47-8.22 28.33-5.77L28.33-5.77ZM41.50 0L36.83 0L36.83-14.22L41.41-14.22Q43.29-14.22 44.79-13.36Q46.30-12.51 47.14-10.95Q47.99-9.39 48.00-7.46L48.00-7.46L48.00-6.81Q48.00-4.85 47.17-3.31Q46.35-1.76 44.85-0.88Q43.35-0.01 41.50 0L41.50 0ZM41.41-11.57L40.25-11.57L40.25-2.64L41.45-2.64Q42.92-2.64 43.71-3.69Q44.50-4.74 44.50-6.81L44.50-6.81L44.50-7.42Q44.50-9.48 43.71-10.53Q42.92-11.57 41.41-11.57L41.41-11.57ZM58.85 0L55.56 0Q55.38-0.32 55.24-0.95L55.24-0.95Q54.34 0.20 52.71 0.20L52.71 0.20Q51.21 0.20 50.17-0.71Q49.12-1.61 49.12-2.98L49.12-2.98Q49.12-4.70 50.39-5.58Q51.66-6.46 54.08-6.46L54.08-6.46L55.10-6.46L55.10-7.01Q55.10-8.47 53.84-8.47L53.84-8.47Q52.67-8.47 52.67-7.31L52.67-7.31L49.38-7.31Q49.38-8.85 50.68-9.80Q51.98-10.76 54.00-10.76Q56.03-10.76 57.20-9.78Q58.37-8.79 58.40-7.07L58.40-7.07L58.40-2.39Q58.42-0.94 58.85-0.17L58.85-0.17L58.85 0ZM53.50-2.15L53.50-2.15Q54.11-2.15 54.52-2.41Q54.92-2.68 55.10-3.01L55.10-3.01L55.10-4.70L54.14-4.70Q52.42-4.70 52.42-3.15L52.42-3.15Q52.42-2.71 52.72-2.43Q53.03-2.15 53.50-2.15ZM65.75-2.97L65.75-2.97Q65.75-3.39 65.31-3.64Q64.87-3.90 63.64-4.17Q62.41-4.44 61.61-4.89Q60.81-5.33 60.39-5.97Q59.97-6.60 59.97-7.42L59.97-7.42Q59.97-8.88 61.17-9.82Q62.37-10.76 64.32-10.76L64.32-10.76Q66.41-10.76 67.68-9.81Q68.95-8.87 68.95-7.32L68.95-7.32L65.64-7.32Q65.64-8.59 64.31-8.59L64.31-8.59Q63.79-8.59 63.44-8.31Q63.09-8.02 63.09-7.59L63.09-7.59Q63.09-7.15 63.52-6.88Q63.95-6.60 64.89-6.43Q65.83-6.25 66.54-6.01L66.54-6.01Q68.93-5.19 68.93-3.07L68.93-3.07Q68.93-1.62 67.64-0.71Q66.36 0.20 64.32 0.20L64.32 0.20Q62.96 0.20 61.89-0.29Q60.83-0.78 60.23-1.62Q59.64-2.46 59.64-3.39L59.64-3.39L62.71-3.39Q62.73-2.66 63.20-2.32Q63.67-1.98 64.40-1.98L64.40-1.98Q65.08-1.98 65.42-2.26Q65.75-2.53 65.75-2.97ZM73.68-15L73.68-9.43Q74.74-10.76 76.38-10.76L76.38-10.76Q78.13-10.76 79.01-9.73Q79.90-8.69 79.92-6.67L79.92-6.67L79.92 0L76.62 0L76.62-6.59Q76.62-7.43 76.28-7.83Q75.94-8.22 75.12-8.22L75.12-8.22Q74.10-8.22 73.68-7.58L73.68-7.58L73.68 0L70.39 0L70.39-15L73.68-15ZM91.56-5.36L91.56-5.20Q91.56-2.60 90.49-1.20Q89.41 0.20 87.46 0.20L87.46 0.20Q85.85 0.20 84.86-1.08L84.86-1.08L84.73 0L81.78 0L81.78-15L85.07-15L85.07-9.72Q85.99-10.76 87.44-10.76L87.44-10.76Q89.41-10.76 90.49-9.35Q91.56-7.93 91.56-5.36L91.56-5.36ZM88.26-5.40L88.26-5.40Q88.26-6.92 87.86-7.57Q87.45-8.22 86.61-8.22L86.61-8.22Q85.50-8.22 85.07-7.37L85.07-7.37L85.07-3.17Q85.49-2.33 86.63-2.33L86.63-2.33Q87.79-2.33 88.11-3.47L88.11-3.47Q88.26-4.02 88.26-5.40ZM92.61-4.82L92.60-5.38Q92.60-6.96 93.21-8.20Q93.83-9.43 94.98-10.10Q96.13-10.76 97.69-10.76L97.69-10.76Q100.06-10.76 101.43-9.29Q102.79-7.82 102.79-5.29L102.79-5.29L102.79-5.18Q102.79-2.71 101.42-1.25Q100.05 0.20 97.71 0.20L97.71 0.20Q95.45 0.20 94.08-1.16Q92.71-2.51 92.61-4.82L92.61-4.82ZM95.90-5.77L95.89-5.18Q95.89-3.71 96.35-3.03Q96.81-2.34 97.71-2.34L97.71-2.34Q99.46-2.34 99.50-5.05L99.50-5.05L99.50-5.38Q99.50-8.22 97.69-8.22L97.69-8.22Q96.04-8.22 95.90-5.77L95.90-5.77ZM113.49 0L110.20 0Q110.02-0.32 109.88-0.95L109.88-0.95Q108.97 0.20 107.34 0.20L107.34 0.20Q105.85 0.20 104.80-0.71Q103.76-1.61 103.76-2.98L103.76-2.98Q103.76-4.70 105.03-5.58Q106.30-6.46 108.72-6.46L108.72-6.46L109.74-6.46L109.74-7.01Q109.74-8.47 108.48-8.47L108.48-8.47Q107.30-8.47 107.30-7.31L107.30-7.31L104.01-7.31Q104.01-8.85 105.32-9.80Q106.62-10.76 108.64-10.76Q110.66-10.76 111.84-9.78Q113.01-8.79 113.04-7.07L113.04-7.07L113.04-2.39Q113.06-0.94 113.49-0.17L113.49-0.17L113.49 0ZM108.13-2.15L108.13-2.15Q108.75-2.15 109.16-2.41Q109.56-2.68 109.74-3.01L109.74-3.01L109.74-4.70L108.78-4.70Q107.06-4.70 107.06-3.15L107.06-3.15Q107.06-2.71 107.36-2.43Q107.67-2.15 108.13-2.15ZM121.31-10.64L121.25-7.59L120.17-7.67Q118.61-7.67 118.17-6.69L118.17-6.69L118.17 0L114.88 0L114.88-10.57L117.97-10.57L118.08-9.21Q118.91-10.76 120.39-10.76L120.39-10.76Q120.92-10.76 121.31-10.64L121.31-10.64ZM121.84-5.36L121.84-5.36Q121.84-7.87 122.92-9.32Q124.00-10.76 125.95-10.76L125.95-10.76Q127.36-10.76 128.33-9.65L128.33-9.65L128.33-15L131.63-15L131.63 0L128.67 0L128.51-1.13Q127.49 0.20 125.93 0.20L125.93 0.20Q124.04 0.20 122.94-1.25Q121.84-2.70 121.84-5.36ZM125.14-5.76L125.13-5.16Q125.13-2.34 126.77-2.34L126.77-2.34Q127.86-2.34 128.33-3.26L128.33-3.26L128.33-7.29Q127.88-8.22 126.79-8.22L126.79-8.22Q125.26-8.22 125.14-5.76L125.14-5.76Z"></path></g></g></svg>